# Blender 4.3.2
# www.blender.org
mtllib Kurty.mtl
o Cube
v -0.115966 0.785967 -1.020828
v -0.241222 -0.756971 -1.020828
v -0.115966 0.785967 1.020828
v -0.241222 -0.756971 1.020828
v 0.259508 0.982223 -1.318887
v 0.097680 -1.011219 -1.318887
v 0.259508 0.982223 1.318887
v 0.097680 -1.011219 1.318887
v -0.097680 1.011219 -1.318887
v -0.259508 -0.982223 -1.318887
v -0.097680 1.011219 1.318887
v -0.259508 -0.982223 1.318887
v -0.008022 0.777204 -1.020828
v -0.133278 -0.765734 -1.020828
v -0.008022 0.777204 1.020828
v -0.133278 -0.765734 1.020828
v 0.097680 -1.011219 -1.318887
v 0.097680 -1.011219 1.318887
v 0.259508 0.982223 1.318887
v 0.259508 0.982223 -1.318887
v 0.097680 -1.011219 -1.318887
v 0.097680 -1.011219 1.318887
v -0.259508 -0.982223 -1.318887
v -0.097680 1.011219 -1.318887
v 0.259508 0.982223 1.318887
v -0.097680 1.011219 1.318887
v -0.259508 -0.982223 1.318887
v 0.259508 0.982223 -1.318887
v 0.097680 -1.011219 -1.318887
v 0.097680 -1.011219 1.318887
v 0.259508 0.982223 1.318887
v 0.259508 0.982223 -1.318887
v 0.097680 -1.011219 -1.318887
v 0.097680 -1.011219 1.318887
v 0.259508 0.982223 1.318887
v 0.259508 0.982223 -1.318887
v 0.097454 -1.014004 -1.318887
v 0.097454 -1.014004 1.318887
v -0.259734 -0.985008 -1.318887
v -0.259734 -0.985008 1.318887
v 0.529698 -0.982593 -1.159126
v 0.529698 -0.982593 1.159126
v 0.671923 0.701765 1.159126
v 0.671923 0.701765 -1.159126
v 1.500329 -1.074095 -1.086949
v 1.500329 -1.074095 1.086949
v 1.633698 0.568782 1.086949
v 1.633698 0.568782 -1.086949
vn 0.0809 0.9967 -0.0000
vn -0.9967 0.0809 -0.0000
vn -0.0000 -0.0000 -1.0000
vn -0.0809 -0.9967 -0.0000
vn -0.0000 -0.0000 1.0000
vn 0.9967 -0.0809 -0.0000
vn 0.3463 -0.0286 -0.9377
vn -0.0939 -0.9956 -0.0000
vn 0.0661 -0.9978 -0.0000
vn 0.5623 0.8269 -0.0000
vn 0.3463 -0.0286 0.9377
vn 0.1370 0.9906 -0.0000
vn 0.0738 -0.0061 0.9973
vn 0.0738 -0.0061 -0.9973
vt 0.875000 0.750000
vt 0.875000 0.500000
vt 0.625000 0.750000
vt 0.625000 0.500000
vt 0.125000 0.500000
vt 0.125000 0.750000
vt 0.397132 0.727868
vt 0.397132 0.522132
vt 0.625000 1.000000
vt 0.375000 1.000000
vt 0.602868 0.522132
vt 0.375000 0.500000
vt 0.602868 0.727868
vt 0.375000 0.750000
vt 0.625000 0.250000
vt 0.375000 0.250000
vt 0.375000 0.000000
vt 0.625000 0.000000
s 0
usemtl Material
f 19/1/1 31/1/1 32/2/1 20/2/1
f 11/3/1 26/3/1 24/4/1 9/4/1
f 6/5/1 17/5/1 18/6/1 8/6/1
f 8/6/1 22/6/1 21/5/1 6/5/1
f 4/7/1 16/7/1 14/8/1 2/8/1
f 7/9/1 25/9/1 22/10/1 8/10/1
f 1/11/2 9/4/2 10/12/2 2/8/2
f 4/7/2 12/14/2 11/3/2 3/13/2
f 3/13/2 11/3/2 9/4/2 1/11/2
f 2/8/2 10/12/2 12/14/2 4/7/2
f 14/8/2 16/7/2 15/13/2 13/11/2
f 3/13/3 15/13/3 16/7/3 4/7/3
f 1/11/4 13/11/4 15/13/4 3/13/4
f 2/8/5 14/8/5 13/11/5 1/11/5
f 20/15/1 32/15/1 29/16/1 17/16/1
f 7/1/1 19/1/1 20/2/1 5/2/1
f 5/15/1 20/15/1 17/16/1 6/16/1
f 8/10/1 18/10/1 19/9/1 7/9/1
f 24/4/1 26/3/1 25/1/1 28/2/1
f 27/14/5 22/10/5 25/9/5 26/3/5
f 22/6/6 38/6/6 37/5/6 21/5/6
f 21/16/3 23/12/3 24/4/3 28/15/3
f 32/15/1 36/15/1 33/16/1 29/16/1
f 12/14/1 27/14/1 26/3/1 11/3/1
f 10/12/1 23/12/1 27/14/1 12/14/1
f 17/5/1 29/5/1 30/6/1 18/6/1
f 6/16/1 21/16/1 28/15/1 5/15/1
f 18/10/1 30/10/1 31/9/1 19/9/1
f 9/4/1 24/4/1 23/12/1 10/12/1
f 5/2/1 28/2/1 25/1/1 7/1/1
f 36/15/7 44/15/7 41/16/7 33/16/7
f 29/5/1 33/5/1 34/6/1 30/6/1
f 31/1/1 35/1/1 36/2/1 32/2/1
f 30/10/1 34/10/1 35/9/1 31/9/1
f 37/5/4 38/6/4 40/14/4 39/12/4
f 23/12/2 39/12/2 40/14/2 27/14/2
f 21/16/3 37/16/3 39/12/3 23/12/3
f 27/14/5 40/14/5 38/10/5 22/10/5
f 41/5/8 45/5/8 46/6/8 42/6/8
f 33/5/9 41/5/9 42/6/9 34/6/9
f 35/1/10 43/1/10 44/2/10 36/2/10
f 34/10/11 42/10/11 43/9/11 35/9/11
f 46/17/6 45/16/6 48/15/6 47/18/6
f 43/1/12 47/1/12 48/2/12 44/2/12
f 42/10/13 46/10/13 47/9/13 43/9/13
f 44/15/14 48/15/14 45/16/14 41/16/14
o Cylinder
v 0.425558 -0.955794 -0.423226
v 0.425558 -1.190563 -0.423226
v 0.508125 -0.955794 -0.415094
v 0.508125 -1.190563 -0.415094
v 0.587519 -0.955794 -0.391010
v 0.587519 -1.190563 -0.391010
v 0.660690 -0.955794 -0.351900
v 0.660690 -1.190563 -0.351900
v 0.724824 -0.955794 -0.299266
v 0.724824 -1.190563 -0.299266
v 0.777457 -0.955794 -0.235132
v 0.777457 -1.190563 -0.235132
v 0.816568 -0.955794 -0.161962
v 0.816568 -1.190563 -0.161962
v 0.840652 -0.955794 -0.082567
v 0.840652 -1.190563 -0.082567
v 0.848784 -0.955794 0.000000
v 0.848784 -1.190563 0.000000
v 0.840652 -0.955794 0.082567
v 0.840652 -1.190563 0.082567
v 0.816568 -0.955794 0.161962
v 0.816568 -1.190563 0.161962
v 0.777457 -0.955794 0.235132
v 0.777457 -1.190563 0.235132
v 0.724824 -0.955794 0.299266
v 0.724824 -1.190563 0.299266
v 0.660690 -0.955794 0.351900
v 0.660690 -1.190563 0.351900
v 0.587519 -0.955794 0.391010
v 0.587519 -1.190563 0.391010
v 0.508125 -0.955794 0.415094
v 0.508125 -1.190563 0.415094
v 0.425558 -0.955794 0.423226
v 0.425558 -1.190563 0.423226
v 0.342991 -0.955794 0.415094
v 0.342991 -1.190563 0.415094
v 0.263596 -0.955794 0.391010
v 0.263596 -1.190563 0.391010
v 0.190426 -0.955794 0.351900
v 0.190426 -1.190563 0.351900
v 0.126292 -0.955794 0.299266
v 0.126292 -1.190563 0.299266
v 0.073658 -0.955794 0.235132
v 0.073658 -1.190563 0.235132
v 0.034548 -0.955794 0.161962
v 0.034548 -1.190563 0.161962
v 0.010464 -0.955794 0.082567
v 0.010464 -1.190563 0.082567
v 0.002332 -0.955794 0.000000
v 0.002332 -1.190563 0.000000
v 0.010464 -0.955794 -0.082567
v 0.010464 -1.190563 -0.082567
v 0.034548 -0.955794 -0.161962
v 0.034548 -1.190563 -0.161962
v 0.073658 -0.955794 -0.235132
v 0.073658 -1.190563 -0.235132
v 0.126292 -0.955794 -0.299266
v 0.126292 -1.190563 -0.299266
v 0.190426 -0.955794 -0.351900
v 0.190426 -1.190563 -0.351900
v 0.263596 -0.955794 -0.391010
v 0.263596 -1.190563 -0.391010
v 0.342991 -0.955794 -0.415094
v 0.342991 -1.190563 -0.415094
vn 0.0980 -0.0000 -0.9952
vn 0.2903 -0.0000 -0.9569
vn 0.4714 -0.0000 -0.8819
vn 0.6344 -0.0000 -0.7730
vn 0.7730 -0.0000 -0.6344
vn 0.8819 -0.0000 -0.4714
vn 0.9569 -0.0000 -0.2903
vn 0.9952 -0.0000 -0.0980
vn 0.9952 -0.0000 0.0980
vn 0.9569 -0.0000 0.2903
vn 0.8819 -0.0000 0.4714
vn 0.7730 -0.0000 0.6344
vn 0.6344 -0.0000 0.7730
vn 0.4714 -0.0000 0.8819
vn 0.2903 -0.0000 0.9569
vn 0.0980 -0.0000 0.9952
vn -0.0980 -0.0000 0.9952
vn -0.2903 -0.0000 0.9569
vn -0.4714 -0.0000 0.8819
vn -0.6344 -0.0000 0.7730
vn -0.7730 -0.0000 0.6344
vn -0.8819 -0.0000 0.4714
vn -0.9569 -0.0000 0.2903
vn -0.9952 -0.0000 0.0980
vn -0.9952 -0.0000 -0.0980
vn -0.9569 -0.0000 -0.2903
vn -0.8819 -0.0000 -0.4714
vn -0.7730 -0.0000 -0.6344
vn -0.6344 -0.0000 -0.7730
vn -0.4714 -0.0000 -0.8819
vn -0.0000 -1.0000 -0.0000
vn -0.2903 -0.0000 -0.9569
vn -0.0980 -0.0000 -0.9952
vn -0.0000 1.0000 -0.0000
vt 1.000000 0.500000
vt 1.000000 1.000000
vt 0.968750 1.000000
vt 0.968750 0.500000
vt 0.937500 1.000000
vt 0.937500 0.500000
vt 0.906250 1.000000
vt 0.906250 0.500000
vt 0.875000 1.000000
vt 0.875000 0.500000
vt 0.843750 1.000000
vt 0.843750 0.500000
vt 0.812500 1.000000
vt 0.812500 0.500000
vt 0.781250 1.000000
vt 0.781250 0.500000
vt 0.750000 1.000000
vt 0.750000 0.500000
vt 0.718750 1.000000
vt 0.718750 0.500000
vt 0.687500 1.000000
vt 0.687500 0.500000
vt 0.656250 1.000000
vt 0.656250 0.500000
vt 0.625000 1.000000
vt 0.625000 0.500000
vt 0.593750 1.000000
vt 0.593750 0.500000
vt 0.562500 1.000000
vt 0.562500 0.500000
vt 0.531250 1.000000
vt 0.531250 0.500000
vt 0.500000 1.000000
vt 0.500000 0.500000
vt 0.468750 1.000000
vt 0.468750 0.500000
vt 0.437500 1.000000
vt 0.437500 0.500000
vt 0.406250 1.000000
vt 0.406250 0.500000
vt 0.375000 1.000000
vt 0.375000 0.500000
vt 0.343750 1.000000
vt 0.343750 0.500000
vt 0.312500 1.000000
vt 0.312500 0.500000
vt 0.281250 1.000000
vt 0.281250 0.500000
vt 0.250000 1.000000
vt 0.250000 0.500000
vt 0.218750 1.000000
vt 0.218750 0.500000
vt 0.187500 1.000000
vt 0.187500 0.500000
vt 0.156250 1.000000
vt 0.156250 0.500000
vt 0.125000 1.000000
vt 0.125000 0.500000
vt 0.093750 1.000000
vt 0.093750 0.500000
vt 0.062500 1.000000
vt 0.062500 0.500000
vt 0.296822 0.485388
vt 0.250000 0.490000
vt 0.203178 0.485388
vt 0.158156 0.471731
vt 0.116663 0.449553
vt 0.080294 0.419706
vt 0.050447 0.383337
vt 0.028269 0.341844
vt 0.014612 0.296822
vt 0.010000 0.250000
vt 0.014612 0.203178
vt 0.028269 0.158156
vt 0.050447 0.116663
vt 0.080294 0.080294
vt 0.116663 0.050447
vt 0.158156 0.028269
vt 0.203178 0.014612
vt 0.250000 0.010000
vt 0.296822 0.014612
vt 0.341844 0.028269
vt 0.383337 0.050447
vt 0.419706 0.080294
vt 0.449553 0.116663
vt 0.471731 0.158156
vt 0.485388 0.203178
vt 0.490000 0.250000
vt 0.485388 0.296822
vt 0.471731 0.341844
vt 0.449553 0.383337
vt 0.419706 0.419706
vt 0.383337 0.449553
vt 0.341844 0.471731
vt 0.031250 1.000000
vt 0.031250 0.500000
vt 0.000000 1.000000
vt 0.000000 0.500000
vt 0.750000 0.490000
vt 0.796822 0.485388
vt 0.841844 0.471731
vt 0.883337 0.449553
vt 0.919706 0.419706
vt 0.949553 0.383337
vt 0.971731 0.341844
vt 0.985388 0.296822
vt 0.990000 0.250000
vt 0.985388 0.203178
vt 0.971731 0.158156
vt 0.949553 0.116663
vt 0.919706 0.080294
vt 0.883337 0.050447
vt 0.841844 0.028269
vt 0.796822 0.014612
vt 0.750000 0.010000
vt 0.703178 0.014612
vt 0.658156 0.028269
vt 0.616663 0.050447
vt 0.580294 0.080294
vt 0.550447 0.116663
vt 0.528269 0.158156
vt 0.514612 0.203178
vt 0.510000 0.250000
vt 0.514612 0.296822
vt 0.528269 0.341844
vt 0.550447 0.383337
vt 0.580294 0.419706
vt 0.616663 0.449553
vt 0.658156 0.471731
vt 0.703178 0.485388
s 0
f 49/19/15 51/22/15 52/21/15 50/20/15
f 51/22/16 53/24/16 54/23/16 52/21/16
f 53/24/17 55/26/17 56/25/17 54/23/17
f 55/26/18 57/28/18 58/27/18 56/25/18
f 57/28/19 59/30/19 60/29/19 58/27/19
f 59/30/20 61/32/20 62/31/20 60/29/20
f 61/32/21 63/34/21 64/33/21 62/31/21
f 63/34/22 65/36/22 66/35/22 64/33/22
f 65/36/23 67/38/23 68/37/23 66/35/23
f 67/38/24 69/40/24 70/39/24 68/37/24
f 69/40/25 71/42/25 72/41/25 70/39/25
f 71/42/26 73/44/26 74/43/26 72/41/26
f 73/44/27 75/46/27 76/45/27 74/43/27
f 75/46/28 77/48/28 78/47/28 76/45/28
f 77/48/29 79/50/29 80/49/29 78/47/29
f 79/50/30 81/52/30 82/51/30 80/49/30
f 81/52/31 83/54/31 84/53/31 82/51/31
f 83/54/32 85/56/32 86/55/32 84/53/32
f 85/56/33 87/58/33 88/57/33 86/55/33
f 87/58/34 89/60/34 90/59/34 88/57/34
f 89/60/35 91/62/35 92/61/35 90/59/35
f 91/62/36 93/64/36 94/63/36 92/61/36
f 93/64/37 95/66/37 96/65/37 94/63/37
f 95/66/38 97/68/38 98/67/38 96/65/38
f 97/68/39 99/70/39 100/69/39 98/67/39
f 99/70/40 101/72/40 102/71/40 100/69/40
f 101/72/41 103/74/41 104/73/41 102/71/41
f 103/74/42 105/76/42 106/75/42 104/73/42
f 105/76/43 107/78/43 108/77/43 106/75/43
f 107/78/44 109/80/44 110/79/44 108/77/44
f 52/81/45 54/112/45 56/111/45 58/110/45 60/109/45 62/108/45 64/107/45 66/106/45 68/105/45 70/104/45 72/103/45 74/102/45 76/101/45 78/100/45 80/99/45 82/98/45 84/97/45 86/96/45 88/95/45 90/94/45 92/93/45 94/92/45 96/91/45 98/90/45 100/89/45 102/88/45 104/87/45 106/86/45 108/85/45 110/84/45 112/83/45 50/82/45
f 109/80/46 111/114/46 112/113/46 110/79/46
f 111/114/47 49/116/47 50/115/47 112/113/47
f 49/117/48 111/148/48 109/147/48 107/146/48 105/145/48 103/144/48 101/143/48 99/142/48 97/141/48 95/140/48 93/139/48 91/138/48 89/137/48 87/136/48 85/135/48 83/134/48 81/133/48 79/132/48 77/131/48 75/130/48 73/129/48 71/128/48 69/127/48 67/126/48 65/125/48 63/124/48 61/123/48 59/122/48 57/121/48 55/120/48 53/119/48 51/118/48
o Cube.001
v -0.038339 -1.298163 0.686950
v -0.225162 -1.298163 0.500127
v -0.096070 -1.298163 0.677807
v -0.148151 -1.298163 0.651270
v -0.189482 -1.298163 0.609939
v -0.216018 -1.298163 0.557858
v -0.225162 -1.209683 0.500127
v -0.038339 -1.209683 0.686950
v -0.216018 -1.209683 0.557858
v -0.189482 -1.209683 0.609939
v -0.148151 -1.209683 0.651270
v -0.096070 -1.209683 0.677807
v -0.225162 -1.298163 -0.500127
v -0.038339 -1.298163 -0.686950
v -0.216018 -1.298163 -0.557858
v -0.189482 -1.298163 -0.609939
v -0.148151 -1.298163 -0.651270
v -0.096070 -1.298163 -0.677807
v -0.038339 -1.209683 -0.686950
v -0.225162 -1.209683 -0.500127
v -0.096070 -1.209683 -0.677807
v -0.148151 -1.209683 -0.651270
v -0.189482 -1.209683 -0.609939
v -0.216018 -1.209683 -0.557858
v 1.148738 -1.298163 0.500127
v 0.961915 -1.298163 0.686950
v 1.139595 -1.298163 0.557858
v 1.113058 -1.298163 0.609939
v 1.071727 -1.298163 0.651270
v 1.019647 -1.298163 0.677807
v 0.961915 -1.209683 0.686950
v 1.148738 -1.209683 0.500127
v 1.019647 -1.209683 0.677807
v 1.071727 -1.209683 0.651270
v 1.113058 -1.209683 0.609939
v 1.139595 -1.209683 0.557858
v 0.961915 -1.298163 -0.686950
v 1.148738 -1.298163 -0.500127
v 1.019647 -1.298163 -0.677807
v 1.071727 -1.298163 -0.651270
v 1.113058 -1.298163 -0.609939
v 1.139595 -1.298163 -0.557858
v 1.148738 -1.209683 -0.500127
v 0.961915 -1.209683 -0.686950
v 1.139595 -1.209683 -0.557858
v 1.113058 -1.209683 -0.609939
v 1.071727 -1.209683 -0.651270
v 1.019647 -1.209683 -0.677807
vn -0.0000 -0.0000 1.0000
vn 1.0000 -0.0000 -0.0000
vn -0.0000 1.0000 -0.0000
vn -1.0000 -0.0000 -0.0000
vn -0.0000 -0.0000 -1.0000
vn -0.1564 -0.0000 0.9877
vn -0.4540 -0.0000 0.8910
vn -0.7071 -0.0000 0.7071
vn -0.8910 -0.0000 0.4540
vn -0.9877 -0.0000 0.1564
vn -0.1564 -0.0000 -0.9877
vn -0.4540 -0.0000 -0.8910
vn -0.7071 -0.0000 -0.7071
vn -0.8910 -0.0000 -0.4540
vn -0.9877 -0.0000 -0.1564
vn 0.9877 -0.0000 -0.1564
vn 0.8910 -0.0000 -0.4540
vn 0.7071 -0.0000 -0.7071
vn 0.4540 -0.0000 -0.8910
vn 0.1564 -0.0000 -0.9877
vn 0.1564 -0.0000 0.9877
vn 0.4540 -0.0000 0.8910
vn 0.7071 -0.0000 0.7071
vn 0.8910 -0.0000 0.4540
vn 0.9877 -0.0000 0.1564
vn -0.0000 -1.0000 -0.0000
vt 0.375000 0.783995
vt 0.625000 0.783995
vt 0.625000 0.966005
vt 0.375000 0.966005
vt 0.375000 0.533995
vt 0.625000 0.533995
vt 0.625000 0.716005
vt 0.375000 0.716005
vt 0.626664 0.523490
vt 0.631492 0.514013
vt 0.639013 0.506492
vt 0.648490 0.501664
vt 0.658995 0.500000
vt 0.841005 0.500000
vt 0.851510 0.501664
vt 0.860987 0.506492
vt 0.868508 0.514013
vt 0.873336 0.523490
vt 0.875000 0.533995
vt 0.875000 0.716005
vt 0.873336 0.726510
vt 0.868508 0.735987
vt 0.860987 0.743508
vt 0.851510 0.748336
vt 0.841005 0.750000
vt 0.658995 0.750000
vt 0.648490 0.748336
vt 0.639013 0.743508
vt 0.631492 0.735987
vt 0.626664 0.726510
vt 0.375000 0.033995
vt 0.625000 0.033995
vt 0.625000 0.216005
vt 0.375000 0.216005
vt 0.375000 0.283995
vt 0.625000 0.283995
vt 0.625000 0.466005
vt 0.375000 0.466005
vt 0.625000 0.976510
vt 0.375000 0.976510
vt 0.625000 1.000000
vt 0.375000 1.000000
vt 0.375000 0.000000
vt 0.625000 0.000000
vt 0.625000 0.014013
vt 0.375000 0.014013
vt 0.625000 0.023490
vt 0.375000 0.023490
vt 0.375000 0.273490
vt 0.625000 0.273490
vt 0.375000 0.264013
vt 0.625000 0.264013
vt 0.375000 0.235987
vt 0.625000 0.235987
vt 0.375000 0.226510
vt 0.625000 0.226510
vt 0.375000 0.523490
vt 0.625000 0.523490
vt 0.375000 0.514013
vt 0.625000 0.514013
vt 0.375000 0.485987
vt 0.625000 0.485987
vt 0.375000 0.476510
vt 0.625000 0.476510
vt 0.375000 0.773490
vt 0.625000 0.773490
vt 0.375000 0.764013
vt 0.625000 0.764013
vt 0.375000 0.735987
vt 0.625000 0.735987
vt 0.375000 0.726510
vt 0.625000 0.726510
vt 0.125000 0.533995
vt 0.126664 0.523490
vt 0.131492 0.514013
vt 0.139013 0.506492
vt 0.148490 0.501664
vt 0.158995 0.500000
vt 0.341005 0.500000
vt 0.351510 0.501664
vt 0.360987 0.506492
vt 0.368508 0.514013
vt 0.373336 0.523490
vt 0.373336 0.726510
vt 0.368508 0.735987
vt 0.360987 0.743508
vt 0.351510 0.748336
vt 0.341005 0.750000
vt 0.158995 0.750000
vt 0.148490 0.748336
vt 0.139013 0.743508
vt 0.131492 0.735987
vt 0.126664 0.726510
vt 0.125000 0.716005
s 0
f 138/149/49 143/150/49 120/151/49 113/152/49
f 150/153/50 155/154/50 144/155/50 137/156/50
f 155/154/51 157/157/51 158/158/51 159/159/51 160/160/51 156/161/51 131/162/51 133/163/51 134/164/51 135/165/51 136/166/51 132/167/51 119/168/51 121/169/51 122/170/51 123/171/51 124/172/51 120/173/51 143/174/51 145/175/51 146/176/51 147/177/51 148/178/51 144/155/51
f 114/179/52 119/180/52 132/181/52 125/182/52
f 126/183/53 131/184/53 156/185/53 149/186/53
f 113/152/54 120/151/54 124/187/54 115/188/54
f 115/188/55 124/187/55 123/189/55 116/190/55
f 116/191/56 123/192/56 122/193/56 117/194/56
f 117/194/57 122/193/57 121/195/57 118/196/57
f 118/196/58 121/195/58 119/180/58 114/179/58
f 131/184/59 126/183/59 130/197/59 133/198/59
f 133/198/60 130/197/60 129/199/60 134/200/60
f 134/200/61 129/199/61 128/201/61 135/202/61
f 135/202/62 128/201/62 127/203/62 136/204/62
f 136/204/63 127/203/63 125/182/63 132/181/63
f 155/154/64 150/153/64 154/205/64 157/206/64
f 157/206/65 154/205/65 153/207/65 158/208/65
f 158/208/66 153/207/66 152/209/66 159/210/66
f 159/210/67 152/209/67 151/211/67 160/212/67
f 160/212/68 151/211/68 149/186/68 156/185/68
f 143/150/69 138/149/69 142/213/69 145/214/69
f 145/214/70 142/213/70 141/215/70 146/216/70
f 146/216/71 141/215/71 140/217/71 147/218/71
f 147/218/72 140/217/72 139/219/72 148/220/72
f 148/220/73 139/219/73 137/156/73 144/155/73
f 125/221/74 127/222/74 128/223/74 129/224/74 130/225/74 126/226/74 149/227/74 151/228/74 152/229/74 153/230/74 154/231/74 150/153/74 137/156/74 139/232/74 140/233/74 141/234/74 142/235/74 138/236/74 113/237/74 115/238/74 116/239/74 117/240/74 118/241/74 114/242/74
